HIERARCHY
ROOT joint_Root
{
	OFFSET 0.0 0.0 0.0
	CHANNELS 6 Xposition Yposition Zposition Zrotation Xrotation Yrotation 
	JOINT Hips
	{
		OFFSET -17.1583 93.1646 452.98
		CHANNELS 6 Xposition Yposition Zposition Zrotation Xrotation Yrotation 
		JOINT Spine
		{
			OFFSET 15.7357 0.0 0.0
			CHANNELS 6 Xposition Yposition Zposition Zrotation Xrotation Yrotation 
			JOINT Chest
			{
				OFFSET 8.98455 -0.406207 0.0
				CHANNELS 6 Xposition Yposition Zposition Zrotation Xrotation Yrotation 
				JOINT Neck
				{
					OFFSET 16.3773 0.0 0.0
					CHANNELS 6 Xposition Yposition Zposition Zrotation Xrotation Yrotation 
					JOINT Head
					{
						OFFSET 6.45672 0.0 0.0
						CHANNELS 6 Xposition Yposition Zposition Zrotation Xrotation Yrotation 
						End Site
						{
							OFFSET 0.0 0.0 0.0
						}
					}
				}
				JOINT Shoulder_L
				{
					OFFSET 12.9942 -0.242716 4.98039
					CHANNELS 6 Xposition Yposition Zposition Zrotation Xrotation Yrotation 
					JOINT UpperArm_L
					{
						OFFSET 5.34809 0.0 0.0
						CHANNELS 6 Xposition Yposition Zposition Zrotation Xrotation Yrotation 
						JOINT LowerArm_L
						{
							OFFSET 24.3286 1.87007e-05 0.0
							CHANNELS 6 Xposition Yposition Zposition Zrotation Xrotation Yrotation 
							JOINT Hand_L
							{
								OFFSET 22.2916 0.0 0.0
								CHANNELS 6 Xposition Yposition Zposition Zrotation Xrotation Yrotation 
								End Site
								{
									OFFSET 0.0 0.0 0.0
								}
							}
						}
					}
				}
				JOINT Shoulder_R
				{
					OFFSET 12.9945 -0.242716 -4.98039
					CHANNELS 6 Xposition Yposition Zposition Zrotation Xrotation Yrotation 
					JOINT UpperArm_R
					{
						OFFSET -5.34813 0.0 0.0
						CHANNELS 6 Xposition Yposition Zposition Zrotation Xrotation Yrotation 
						JOINT LowerArm_R
						{
							OFFSET -24.3289 0.000322201 0.0
							CHANNELS 6 Xposition Yposition Zposition Zrotation Xrotation Yrotation 
							JOINT Hand_R
							{
								OFFSET -22.2915 -0.000108084 0.0
								CHANNELS 6 Xposition Yposition Zposition Zrotation Xrotation Yrotation 
								End Site
								{
									OFFSET 0.0 0.0 0.0
								}
							}
						}
					}
				}
			}
		}
		JOINT UpperLeg_L
		{
			OFFSET -2.19248 -6.46944 0.0
			CHANNELS 6 Xposition Yposition Zposition Zrotation Xrotation Yrotation 
			JOINT LowerLeg_L
			{
				OFFSET 39.0811 0.0 -1.23785e-05
				CHANNELS 6 Xposition Yposition Zposition Zrotation Xrotation Yrotation 
				JOINT Foot_L
				{
					OFFSET 40.9854 0.0 -1.26872e-05
					CHANNELS 6 Xposition Yposition Zposition Zrotation Xrotation Yrotation 
					JOINT Toes_L
					{
						OFFSET 11.7543 0.0 0.0
						CHANNELS 6 Xposition Yposition Zposition Zrotation Xrotation Yrotation 
						End Site
						{
							OFFSET 0.0 0.0 0.0
						}
					}
				}
			}
		}
		JOINT UpperLeg_R
		{
			OFFSET -2.19251 6.46944 0.0
			CHANNELS 6 Xposition Yposition Zposition Zrotation Xrotation Yrotation 
			JOINT LowerLeg_R
			{
				OFFSET -39.0811 -0.00228153 -0.0401928
				CHANNELS 6 Xposition Yposition Zposition Zrotation Xrotation Yrotation 
				JOINT Foot_R
				{
					OFFSET -40.9854 0.0 0.0
					CHANNELS 6 Xposition Yposition Zposition Zrotation Xrotation Yrotation 
					JOINT Toes_R
					{
						OFFSET -11.7543 0.0 0.0
						CHANNELS 6 Xposition Yposition Zposition Zrotation Xrotation Yrotation 
						End Site
						{
							OFFSET 0.0 0.0 0.0
						}
					}
				}
			}
		}
	}
}
MOTION
Frames:	4
Frame Time:	0.0333333
0.000000 0.000000 0.000000 0.000000 0.000000 -0.000000 -1.705550 93.317100 -4.122010 87.856100 -0.250376 2.747000 15.735700 0.000005 -0.000001 97.260400 86.005700 -96.237800 8.984550 -0.406207 -0.000000 0.150984 0.941370 2.042680 16.377300 -0.000001 -0.000001 -2.647420 1.730950 -1.768180 6.456720 -0.000001 -0.000000 0.319582 1.193640 0.485742 12.994200 -0.242716 4.980390 -92.174700 7.164450 -73.065400 5.348090 -0.000007 -0.000001 -71.396300 16.312800 -7.179650 24.328600 0.000019 0.000005 4.735190 25.040900 -11.073800 22.291600 -0.000001 0.000005 -15.131000 5.080850 5.545580 12.994500 -0.242716 -4.980390 88.900600 4.276920 -75.570000 -5.348130 -0.000001 -0.000004 -66.732700 31.396200 -11.108500 -24.328900 0.000322 -0.000009 0.504570 2.193710 -12.982500 -22.291500 -0.000108 -0.000004 -14.855300 5.154080 3.848860 -2.192480 -6.469440 -0.000000 -172.873000 -7.387270 -2.261710 39.081100 -0.000007 -0.000012 0.000148 -0.000495 16.650900 40.985400 -0.000006 -0.000013 -1.328150 13.377200 -67.085000 11.754300 -0.000000 0.000003 -0.000179 0.170579 -9.658080 -2.192510 6.469440 -0.000001 178.410000 5.429420 179.099000 -39.081100 -0.002282 -0.040193 0.043455 -0.164519 13.705700 -40.985400 0.000008 0.000006 -3.435080 5.914610 -66.605600 -11.754300 -0.000006 -0.000006 -0.008468 0.259475 -6.034580
0.000000 0.000000 0.000000 0.000000 0.000000 -0.000000 -1.696950 93.387600 -4.206060 87.832400 -0.209334 1.805410 15.735700 0.000005 -0.000001 98.123500 86.292900 -97.163100 8.984550 -0.406207 -0.000000 -0.433612 0.978742 1.923440 16.377300 -0.000001 -0.000001 -3.902580 1.579340 -1.516730 6.456720 -0.000001 -0.000000 -0.990938 1.152830 0.738019 12.994200 -0.242716 4.980390 -92.011900 6.687420 -73.214000 5.348090 -0.000007 -0.000001 -68.445300 11.976800 -12.387800 24.328600 0.000019 0.000005 3.368450 30.129400 -6.688780 22.291600 -0.000001 0.000005 -18.976400 5.124890 4.536350 12.994500 -0.242716 -4.980390 89.091700 3.563150 -75.688700 -5.348130 -0.000001 -0.000004 -63.354800 29.948800 -15.241600 -24.328900 0.000322 -0.000009 0.737790 3.195550 -13.025400 -22.291500 -0.000108 -0.000004 -19.660900 5.120560 4.641140 -2.192480 -6.469440 -0.000000 -172.968000 -7.606250 -3.003170 39.081100 -0.000007 -0.000012 0.000592 -0.002045 16.143900 40.985400 -0.000006 -0.000013 -1.375610 13.543400 -67.042400 11.754300 -0.000000 0.000003 -0.000194 0.170834 -9.647710 -2.192510 6.469440 -0.000001 178.434000 5.707820 178.387000 -39.081100 -0.002282 -0.040193 0.036349 -0.142041 13.085200 -40.985400 0.000008 0.000006 -4.041130 6.221130 -66.145700 -11.754300 -0.000006 -0.000006 -0.008893 0.262836 -5.897250
0.000000 0.000000 0.000000 0.000000 0.000000 -0.000000 -1.677590 93.440300 -4.193520 87.809900 -0.223928 0.954798 15.735700 0.000005 -0.000001 99.477600 86.673300 -98.577200 8.984550 -0.406207 -0.000000 -1.210810 1.024830 1.810950 16.377300 -0.000001 -0.000001 -5.019660 1.403800 -1.308810 6.456720 -0.000001 -0.000000 -2.214630 1.162300 0.892487 12.994200 -0.242716 4.980390 -91.742900 5.823260 -73.305700 5.348090 -0.000007 -0.000001 -64.893300 5.772060 -18.036600 24.328600 0.000019 0.000005 2.459750 34.853900 -4.298820 22.291600 -0.000001 0.000005 -21.567900 5.117200 4.717560 12.994500 -0.242716 -4.980390 89.357300 2.491430 -75.530200 -5.348130 -0.000001 -0.000004 -58.757900 27.295500 -20.638500 -24.328900 0.000322 -0.000009 0.925563 3.925540 -13.292500 -22.291500 -0.000108 -0.000004 -23.556800 5.091730 5.303810 -2.192480 -6.469440 -0.000000 -173.047000 -8.054380 -3.626890 39.081100 -0.000007 -0.000012 -0.000472 0.001675 15.738200 40.985400 -0.000006 -0.000013 -1.380440 13.811900 -67.079500 11.754300 -0.000000 0.000003 -0.000349 0.173298 -9.547610 -2.192510 6.469440 -0.000001 178.472000 6.134300 177.856000 -39.081100 -0.002282 -0.040193 0.031850 -0.129448 12.422900 -40.985400 0.000008 0.000006 -4.215170 6.638030 -65.742900 -11.754300 -0.000006 -0.000006 -0.008575 0.260332 -5.999580
0.000000 0.000000 0.000000 0.000000 0.000000 -0.000000 -1.667650 93.450500 -3.959660 87.776600 -0.382852 0.570565 15.735700 0.000005 -0.000001 100.502000 87.019200 -99.612300 8.984550 -0.406207 -0.000000 -1.911640 1.011220 1.795810 16.377300 -0.000001 -0.000001 -5.844020 1.358240 -1.212900 6.456720 -0.000001 -0.000000 -3.267250 1.283400 0.720942 12.994200 -0.242716 4.980390 -91.484600 4.940410 -73.251700 5.348090 -0.000007 -0.000001 -60.015000 -0.128699 -23.655400 24.328600 0.000019 0.000005 2.777810 35.573600 -4.767590 22.291600 -0.000001 0.000005 -21.091100 5.110370 4.875170 12.994500 -0.242716 -4.980390 89.628700 1.411890 -75.263700 -5.348130 -0.000001 -0.000004 -53.083300 22.695200 -26.792800 -24.328900 0.000322 -0.000009 0.951663 3.855740 -13.890500 -22.291500 -0.000108 -0.000004 -24.327900 5.073650 5.711150 -2.192480 -6.469440 -0.000000 -173.040000 -8.367470 -3.700760 39.081100 -0.000007 -0.000012 -0.002992 0.010760 15.537300 40.985400 -0.000006 -0.000013 -1.361970 13.911700 -67.214000 11.754300 -0.000000 0.000003 -0.000191 0.170777 -9.650030 -2.192510 6.469440 -0.000001 178.495000 6.218780 177.783000 -39.081100 -0.002282 -0.040193 0.029335 -0.121374 12.090600 -40.985400 0.000008 0.000006 -4.296000 6.882110 -65.692100 -11.754300 -0.000006 -0.000006 -0.008432 0.259193 -6.046110
